<?xml version="1.0" encoding="UTF-8"?>
<svg id="Layer_1" data-name="Layer 1" xmlns="http://www.w3.org/2000/svg" viewBox="0 0 1041.9 278.16">
  <defs>
    <style>
      .cls-1 {
        letter-spacing: 0em;
      }

      .cls-2, .cls-3 {
        fill: #f0a93b;
      }

      .cls-3 {
        font-family: Rubik-Regular, Rubik;
        font-size: 177.05px;
        font-variation-settings: 'wght' 400;
      }

      .cls-4 {
        letter-spacing: -.03em;
      }
    </style>
  </defs>
  <path class="cls-2" d="m263.41,121.66c-.89-3.86-4.38-6.51-8.32-6.3-.97.04-24.09.97-48.58-5.87-31.87-8.89-50.99-26.2-56.84-51.45-.71-3.05-3.08-5.39-6.11-6.08-2.14-.98-4.64-.99-6.79,0-23.56,10.79-48.95,6.23-75.46-13.58C40.7,22.98,27.12,3.69,26.99,3.5,24.73.25,20.48-.91,16.89.76c-3.6,1.66-5.47,5.65-4.44,9.48l50.77,190.43-25.91,53.92c-1.27,2.64-3.51,4.64-6.32,5.63-2.8.98-5.8.83-8.45-.45-5.5-2.64-7.82-9.26-5.18-14.76l4.13-8.59c.94-1.96,1.06-4.17.34-6.22s-2.2-3.7-4.15-4.64c-1.96-.94-4.17-1.06-6.22-.34-2.05.72-3.7,2.2-4.64,4.15l-4.13,8.59c-3.15,6.56-3.56,13.98-1.13,20.88,2.42,6.9,7.37,12.44,13.93,15.6,3.72,1.79,7.69,2.7,11.78,2.7,3.09,0,6.15-.53,9.11-1.56,6.91-2.42,12.44-7.37,15.6-13.93l25.66-53.42,181.03-77.26c3.63-1.55,5.62-5.47,4.73-9.31Zm-138.69-48.98l-50.66,105.45L37,39.17c4.69,4.39,9.49,8.43,14.35,12.08,24.43,18.32,49.66,25.66,73.37,21.43Zm96.43,56.61l-132.22,56.43,51.77-105.3c11.16,21.26,32.35,36.68,61.69,44.82,5.99,1.66,12.27,3.02,18.76,4.05Z"/>
  <text class="cls-3" transform="translate(305.21 231.42)"><tspan x="0" y="0">Cit</tspan><tspan class="cls-4" x="229.98" y="0">y</tspan><tspan class="cls-1" x="322.93" y="0" xml:space="preserve"> Pilot</tspan></text>
</svg>