<?xml version="1.0" encoding="UTF-8"?>
<svg id="Layer_1" data-name="Layer 1" xmlns="http://www.w3.org/2000/svg" viewBox="0 0 620.44 620.44">
  <defs>
    <style>
      .cls-1 {
        fill: #f7a42b;
      }

      .cls-2 {
        fill: #2a315b;
      }
    </style>
  </defs>
  <circle class="cls-2" cx="310.22" cy="310.22" r="310.22"/>
  <path class="cls-1" d="m578.17,267.87c-1.48-6.4-7.29-10.8-13.81-10.45-1.61.07-39.96,1.6-80.6-9.74-52.87-14.75-84.6-43.47-94.29-85.35-1.17-5.06-5.11-8.94-10.14-10.09-3.55-1.63-7.7-1.64-11.26-.01-39.09,17.91-81.2,10.33-125.18-22.52-34.18-25.53-56.7-57.53-56.92-57.84-3.75-5.4-10.8-7.32-16.76-4.56-5.97,2.76-9.07,9.38-7.37,15.73l84.23,315.92-42.98,89.45c-2.11,4.39-5.83,7.7-10.48,9.33-4.65,1.63-9.63,1.37-14.01-.74-4.41-2.12-7.73-5.84-9.36-10.47-1.63-4.63-1.35-9.61.76-14.02l6.85-14.25c3.22-6.71.39-14.79-6.32-18.01-3.25-1.56-6.91-1.76-10.32-.57-3.4,1.19-6.14,3.64-7.7,6.89l-6.85,14.25c-5.23,10.89-5.9,23.19-1.88,34.65,4.02,11.45,12.23,20.64,23.12,25.87,6.18,2.97,12.75,4.47,19.54,4.47,5.12,0,10.2-.87,15.11-2.59,11.45-4.02,20.64-12.23,25.87-23.12l42.58-88.61,300.32-128.17c6.02-2.57,9.32-9.07,7.85-15.45Zm-230.08-81.25l-84.05,174.93-61.46-230.52c7.78,7.29,15.74,13.99,23.8,20.04,40.54,30.39,82.39,42.56,121.71,35.55Zm159.97,93.91l-219.35,93.61,85.89-174.68c18.52,35.26,53.67,60.86,102.34,74.35,9.94,2.75,20.35,5,31.12,6.72Z"/>
</svg>